<svg
    xmlns="http://www.w3.org/2000/svg" version="1.1" width="949" height="256" viewbox="0 0 949 256">
<g data-v-5bd9031f="" fill="#ffffff" class="icon-text-wrapper icon-svg-group iconsvg" transform="translate(83.64500427246094,90.77687454223633)"><g class="iconsvg-imagesvg" transform="translate(0,4.223125457763672)"><rect fill="#ffffff" fill-opacity="0" stroke-width="2" x="0" y="0" width="60" height="60" class="image-rect"></rect> <svg filter="url(#colors4886677762)" x="0" y="0" width="60" height="60" filtersec="colorsf9557445712" class="image-svg-svg"><svg xmlns="http://www.w3.org/2000/svg" viewBox="0 0 100 100"><path fill="#333333" d="M50 18.777c17.243 0 31.222 13.98 31.222 31.223S67.243 81.222 50 81.222 18.778 67.243 18.778 50 32.757 18.778 50 18.778zM25.747 8c2.49-1.435 5.671-.587 7.107 1.904s.586 5.672-1.905 7.107c-2.49 1.435-5.672.587-7.107-1.904S23.262 9.435 25.747 8zM8 25.753c1.435-2.49 4.616-3.34 7.107-1.904s3.34 4.616 1.904 7.107c-1.442 2.484-4.623 3.34-7.107 1.904S6.558 28.237 8 25.753zM1.5 50a5.202 5.202 0 1 1 10.404-.001A5.202 5.202 0 0 1 1.5 50zM8 74.253a5.2 5.2 0 0 1 1.904-7.106 5.2 5.2 0 0 1 7.107 1.904 5.2 5.2 0 0 1-1.904 7.107A5.207 5.207 0 0 1 8 74.253zM25.753 92c-2.49-1.435-3.34-4.616-1.904-7.107s4.616-3.34 7.107-1.904a5.2 5.2 0 0 1 1.904 7.107c-1.442 2.49-4.623 3.346-7.107 1.904zM50 98.5a5.202 5.202 0 1 1-.001-10.404A5.202 5.202 0 0 1 50 98.5zM74.254 92a5.2 5.2 0 0 1-7.108-1.904 5.2 5.2 0 0 1 1.905-7.107 5.2 5.2 0 0 1 7.107 1.904A5.207 5.207 0 0 1 74.253 92zM92 74.247a5.2 5.2 0 0 1-7.107 1.904 5.2 5.2 0 0 1-1.904-7.107 5.2 5.2 0 0 1 7.107-1.904c2.49 1.442 3.346 4.623 1.904 7.107zM98.5 50a5.202 5.202 0 1 1-10.404.001A5.202 5.202 0 0 1 98.5 50zM92 25.747a5.2 5.2 0 0 1-1.904 7.107 5.2 5.2 0 0 1-7.107-1.905c-1.435-2.49-.587-5.672 1.904-7.107s5.672-.58 7.107 1.905zM74.247 8a5.2 5.2 0 0 1 1.904 7.107 5.2 5.2 0 0 1-7.107 1.904c-2.484-1.442-3.34-4.623-1.904-7.107 1.442-2.49 4.623-3.346 7.107-1.904zM50 1.5c2.877 0 5.203 2.332 5.203 5.203S52.877 11.905 50 11.905A5.202 5.202 0 1 1 50 1.5z"></path></svg></svg> <defs><filter id="colors4886677762"><feColorMatrix type="matrix" values="0 0 0 0 0.99609375  0 0 0 0 0.99609375  0 0 0 0 0.99609375  0 0 0 1 0" class="icon-fecolormatrix"></feColorMatrix></filter> <filter id="colorsf9557445712"><feColorMatrix type="matrix" values="0 0 0 0 0.99609375  0 0 0 0 0.99609375  0 0 0 0 0.99609375  0 0 0 1 0" class="icon-fecolormatrix"></feColorMatrix></filter> <filter id="colorsb5704203973"><feColorMatrix type="matrix" values="0 0 0 0 0  0 0 0 0 0  0 0 0 0 0  0 0 0 1 0" class="icon-fecolormatrix"></feColorMatrix></filter></defs></g> <g transform="translate(67,0)"><g class="tp-name iconsvg-namesvg" transform="translate(0,0)"><g><path d="M51.65-44.99L25.25-44.16L25.80-25.80L51.15-26.73ZM44.27-33.38L32.73-32.56L32.40-37.51L44.22-37.84ZM42.68-3.46L42.73-7.26L52.09-7.59L51.76-14.24L42.79-13.70L42.84-17.00L52.20-17.60L51.87-23.32L24.86-22.66L25.25-15.89L34.98-16.55L35.09-13.31L25.36-12.76L25.57-6.66L35.31-6.99L35.48-3.41L24.20-3.30L24.42 3.58L53.24 2.31L53.02-3.63ZM23.32-30.03L16.55-29.98L16.66-37.79L23.10-38.28L22.50-45.10L2.64-42.95L3.08-36.85L9.24-37.29L9.35-29.92L2.42-29.86L2.75-22.66L9.46-22.99L10.06 4.46L16.17 4.13L16.50-23.43L23.48-23.82ZM7.42 2.69L7.81-21.01L4.62-21.01L2.69 2.69ZM18.98 2.81L23.54 2.53L21.18-21.84L18.15-21.50ZM107.58-4.24L102.91-3.52L103.84-44.72L84.81-44.05L84.92 3.52L91.91 3.19L90.81-37.07L96.85-37.40L96.47 3.35L108.13 3.14ZM82.11-44.49L76.06-44.16L76.34-36.08L73.42-35.91L73.75-46.20L67.43-45.87L67.87-35.59L64.73-35.37L64.63-44.66L58.58-44.27L59.07-28.71L81.84-29.59ZM65.94-8.86L81.62-9.40L81.95-26.02L57.80-25.08L58.08-18.54L74.80-19.75L74.91-15.23L58.80-14.69L59.07 3.74L82.61 2.58L81.89-4.29L65.89-2.86Z" transform="translate(-2.42, 46.2)"></path></g> <!----> <!----> <!----> <!----> <!----> <!----> <g fill="#ffffff" transform="translate(108.70999908447266,0)"></g></g> <g class="tp-slogan iconsvg-slogansvg" fill="#ffffff" transform="translate(0,57.65999984741211)"><!----> <rect x="0" height="1" y="4.894999980926514" width="18.659997940063477"></rect> <rect height="1" y="4.894999980926514" width="18.659997940063477" x="87.05000114440918"></rect> <g transform="translate(21.659997940063477,0)"><path d="M5.67-7.13L5.63-7.13L3.66 0L2.44 0L0.19-8.58L1.41-8.58L3.05-1.59L3.09-1.59L5.02-8.58L6.28-8.58L8.20-1.59L8.25-1.59L9.84-8.58L11.11-8.58L8.86 0L7.64 0L5.67-7.13ZM13.50-1.03L18.66-1.03L18.66 0L12.33 0L12.33-8.58L18.56-8.58L18.56-7.59L13.50-7.59L13.50-4.92L18.19-4.92L18.19-3.89L13.50-3.89L13.50-1.03ZM23.39-7.64L21.33-7.64L21.33-4.97L23.39-4.97Q25.22-4.92 25.17-6.38L25.17-6.38Q25.17-7.64 23.39-7.64L23.39-7.64ZM23.86 0L20.16 0L20.16-8.58L23.95-8.58Q26.25-8.48 26.34-6.42L26.34-6.42Q26.34-5.16 25.22-4.64L25.22-4.64Q26.81-4.08 26.81-2.53L26.81-2.53Q26.67-0.09 23.86 0L23.86 0ZM23.58-3.98L21.33-3.98L21.33-0.98L23.81-0.98Q25.59-1.03 25.64-2.53L25.64-2.53Q25.64-3.98 23.58-3.98L23.58-3.98ZM33.56-9.66L33.56-9.66Q34.88-9.52 35.02-9.38L35.02-9.38Q35.02-9.33 34.88-9.19L34.88-9.19Q34.64-9 34.59-8.77L34.59-8.77Q34.27-7.88 34.13-7.41L34.13-7.41L36.09-7.41Q38.16-7.41 38.53-7.55L38.53-7.55L38.53-6.47Q38.39-6.56 37.13-6.56L37.13-6.56Q36.66-2.72 35.67-1.59L35.67-1.59Q37.03-0.33 38.72 0.05L38.72 0.05Q38.11 0.47 37.92 1.13L37.92 1.13Q36.38 0.38 35.06-0.84L35.06-0.84Q33.75 0.28 31.83 1.13L31.83 1.13Q31.50 0.56 30.84 0.23L30.84 0.23Q33.47-0.52 34.45-1.64L34.45-1.64Q33.80-2.77 33.19-5.02L33.19-5.02L34.22-5.11Q34.31-3.70 35.06-2.39L35.06-2.39Q35.81-3.84 36.09-6.56L36.09-6.56L33.80-6.56Q33.05-4.83 32.48-3.94L32.48-3.94Q32.06-4.22 31.45-4.31L31.45-4.31Q33-5.91 33.56-9.66ZM27.84-7.08L27.84-8.20Q28.13-8.11 29.53-8.11L29.53-8.11L30.42-8.11Q31.83-8.11 32.06-8.20L32.06-8.20L32.06-7.13Q31.83-7.17 30.42-7.17L30.42-7.17L30.42-2.06Q30.52-2.11 30.84-2.20L30.84-2.20Q31.88-2.63 32.25-2.81L32.25-2.81L32.30-1.69Q29.30-0.66 28.27-0.19L28.27-0.19Q28.22-0.14 28.17-0.14L28.17-0.14L27.66-1.27Q27.66-1.27 27.75-1.27L27.75-1.27Q28.27-1.36 29.44-1.73L29.44-1.73L29.44-7.17Q28.03-7.17 27.84-7.08L27.84-7.08ZM46.59-9.61L46.59-9.61Q47.77-9.61 47.95-9.47L47.95-9.47Q47.95-9.47 47.95-9.42L47.95-9.42Q47.72-9 47.67-8.67L47.67-8.67Q47.67-7.83 47.67-7.50L47.67-7.50L48.80-7.50Q49.83-7.50 50.39-7.64L50.39-7.64L50.39-6.61Q49.64-6.75 48.80-6.75L48.80-6.75L47.72-6.75Q47.81-3.94 48.28-2.30L48.28-2.30Q48.89-4.22 48.94-5.77L48.94-5.77Q50.25-5.48 50.25-5.34L50.25-5.34Q50.25-5.30 50.11-5.20L50.11-5.20Q49.92-5.06 49.88-4.92L49.88-4.92Q49.88-4.88 49.83-4.73L49.83-4.73Q49.22-2.25 48.70-1.36L48.70-1.36Q49.22-0.38 49.55-0.19L49.55-0.19Q49.78-0.19 49.97-1.31L49.97-1.31Q50.39-0.94 50.91-0.66L50.91-0.66Q50.39 0.75 49.88 0.98L49.88 0.98Q49.13 1.22 48.05-0.47L48.05-0.47Q47.39 0.28 46.17 1.08L46.17 1.08Q45.75 0.61 45.14 0.38L45.14 0.38Q46.73-0.28 47.63-1.36L47.63-1.36Q46.88-3.75 46.83-6.75L46.83-6.75L44.39-6.75L44.39-5.16L45.33-5.16Q45.84-5.16 46.31-5.25L46.31-5.25Q46.31-5.16 46.31-4.73L46.31-4.73Q46.27-4.22 46.27-4.08L46.27-4.08Q46.31-3.52 46.27-2.67L46.27-2.67Q46.27-1.69 46.22-1.36L46.22-1.36Q46.08-0.75 44.67-0.56L44.67-0.56Q44.44-1.22 44.25-1.64L44.25-1.64Q44.16-1.73 44.20-1.73L44.20-1.73Q45.47-1.45 45.42-2.20L45.42-2.20L45.42-4.41L44.39-4.41Q44.53-0.98 42.70 1.03L42.70 1.03Q42.56 0.89 42.19 0.70L42.19 0.70Q41.86 0.56 41.58 0.42L41.58 0.42Q42.80-0.52 43.13-1.55L43.13-1.55Q43.50-2.63 43.50-5.16L43.50-5.16Q43.50-5.34 43.45-5.72L43.45-5.72Q43.41-7.17 43.41-7.59L43.41-7.59Q43.88-7.50 44.58-7.50L44.58-7.50L46.78-7.50Q46.69-8.39 46.59-9.61ZM48.33-9L49.17-9.47Q49.45-9.09 49.92-8.20L49.92-8.20L48.94-7.78Q48.75-8.39 48.33-9L48.33-9ZM40.92-9.23L40.92-9.23Q42.09-9.23 42.23-9.05L42.23-9.05Q42.23-8.95 42.14-8.86L42.14-8.86Q41.91-8.58 41.91-8.16L41.91-8.16L41.91-6.38L42.19-6.38Q42.42-6.38 42.75-6.42L42.75-6.42Q42.94-6.42 43.03-6.42L43.03-6.42L43.03-5.53Q42.56-5.58 42.19-5.58L42.19-5.58L41.91-5.58L41.91-2.20Q41.91-2.20 42.14-2.30L42.14-2.30Q42.80-2.48 43.08-2.63L43.08-2.63L42.98-1.64Q40.73-0.89 39.89-0.66L39.89-0.66L39.56-1.69Q40.59-1.88 41.02-1.97L41.02-1.97L41.02-5.58L40.69-5.58Q40.36-5.58 39.80-5.48L39.80-5.48L39.80-6.42Q40.22-6.33 40.69-6.33L40.69-6.33L41.02-6.33L41.02-8.11Q41.02-8.86 40.92-9.23ZM54.42-9.56L54.42-9.56Q55.31-9.09 55.50-8.91L55.50-8.91Q55.50-8.86 55.41-8.86L55.41-8.86Q55.17-8.77 54.94-8.53L54.94-8.53Q54.84-8.44 54.61-8.16L54.61-8.16Q54.23-7.69 53.95-7.36L53.95-7.36Q54.52-6.19 54.61-3.98L54.61-3.98Q54.75-1.41 54.33-0.33L54.33-0.33Q53.91 0.47 52.31 0.61L52.31 0.61Q52.31 0.23 51.94-0.47L51.94-0.47Q53.20-0.14 53.44-0.70L53.44-0.70Q53.95-1.73 53.81-4.41L53.81-4.41Q52.92-3.19 52.13-2.20L52.13-2.20Q51.94-2.63 51.52-3.05L51.52-3.05Q52.78-3.89 53.63-5.63L53.63-5.63Q53.53-6.19 53.34-6.66L53.34-6.66Q53.16-6.47 52.78-6.09L52.78-6.09Q52.45-5.72 52.22-5.48L52.22-5.48Q51.66-6.05 51.47-6.09L51.47-6.09Q52.22-6.61 53.02-7.41L53.02-7.41Q52.45-8.20 51.75-8.72L51.75-8.72L52.59-9.28Q52.73-9.09 53.11-8.67L53.11-8.67Q53.39-8.30 53.53-8.11L53.53-8.11Q54-8.72 54.42-9.56ZM56.63-9.52L56.63-9.52Q57.75-9.52 57.80-9.38L57.80-9.38Q57.80-9.33 57.75-9.28L57.75-9.28Q57.61-9.09 57.56-8.48L57.56-8.48Q57.52-6.61 57.52-4.03L57.52-4.03Q57.66-0.75 55.36 0.98L55.36 0.98Q55.03 0.56 54.42 0.42L54.42 0.42Q56.11-0.47 56.44-1.88L56.44-1.88Q56.67-2.58 56.72-3.80L56.72-3.80Q56.77-4.69 56.77-7.64L56.77-7.64Q56.77-8.72 56.63-9.52ZM62.58-9.05L62.58-9.05L62.58-8.02Q62.11-8.06 61.45-8.06L61.45-8.06L60.56-8.06L60.56-6.70L61.13-6.70Q61.59-6.70 62.20-6.80L62.20-6.80Q62.16-6.75 62.34-6.80L62.34-6.80Q62.25-6.33 62.25-5.72L62.25-5.72L62.25-1.41Q62.39-0.66 61.03-0.52L61.03-0.52Q61.03-1.17 60.66-1.55L60.66-1.55Q61.50-1.22 61.41-1.92L61.41-1.92L61.41-5.91L60.56-5.91L60.56-0.42Q60.56 0.52 60.66 0.98L60.66 0.98L59.63 0.98Q59.77 0.56 59.77-0.38L59.77-0.38L59.77-5.91L58.97-5.91L58.97-1.88Q58.97-0.89 59.02-0.38L59.02-0.38L57.98-0.38Q58.13-0.80 58.13-1.97L58.13-1.97L58.13-3.05L58.13-5.72Q58.13-6.28 58.03-6.80L58.03-6.80Q58.45-6.70 59.02-6.70L59.02-6.70L59.77-6.70L59.77-8.06L59.06-8.06Q58.45-8.06 57.94-7.97L57.94-7.97L57.94-8.95Q58.41-8.91 59.06-8.91L59.06-8.91L61.41-8.91Q62.02-8.91 62.58-9.05ZM55.22-8.06L55.22-8.06Q56.34-7.97 56.30-7.92L56.30-7.92Q56.30-7.92 56.30-7.88L56.30-7.88Q56.11-7.59 56.11-6.98L56.11-6.98L56.11-3.19Q56.11-2.67 56.16-2.11L56.16-2.11L55.17-2.11Q55.27-2.53 55.27-3.23L55.27-3.23L55.27-7.03Q55.27-7.59 55.22-8.06Z" transform="translate(-0.1875, 9.65625)"></path></g></g></g></g>
</svg>